<?xml version="1.0" encoding="utf-8"?>
<!-- Generator: Adobe Illustrator 19.2.1, SVG Export Plug-In . SVG Version: 6.00 Build 0)  -->
<svg version="1.1" id="layer" xmlns="http://www.w3.org/2000/svg" xmlns:xlink="http://www.w3.org/1999/xlink" x="0px" y="0px"
	 viewBox="0 0 652 652" style="enable-background:new 0 0 652 652;" xml:space="preserve">
<style type="text/css">
	.st0{fill:#D70C18;}
</style>
<g>
	<path class="st0" d="M20.1,410.6h7.4c0.3,2.6,1.6,4.1,5,4.1c3.1,0,4.5-1.2,4.5-3.1c0-2-1.7-2.8-5.8-3.4c-7.6-1.2-10.6-3.3-10.6-8.9
		c0-6,5.5-8.9,11.3-8.9c6.3,0,11.1,2.3,11.8,8.9h-7.3c-0.4-2.4-1.8-3.4-4.5-3.4c-2.6,0-4.1,1.2-4.1,3c0,1.8,1.4,2.5,5.5,3.1
		c7.2,1,11.1,2.8,11.1,9c0,6.2-4.5,9.4-12,9.4C24.9,420.1,20.4,416.8,20.1,410.6"/>
	<polygon class="st0" points="56.2,416.6 44.8,390.9 53.3,390.9 60.3,408.1 66.7,390.9 74.3,390.9 58.8,429.3 51.1,429.3 	"/>
	<path class="st0" d="M74.7,410.6h7.4c0.3,2.6,1.6,4.1,5,4.1c3.1,0,4.5-1.2,4.5-3.1c0-2-1.7-2.8-5.8-3.4c-7.6-1.2-10.6-3.3-10.6-8.9
		c0-6,5.5-8.9,11.3-8.9c6.4,0,11.1,2.3,11.8,8.9h-7.3c-0.4-2.4-1.8-3.4-4.5-3.4c-2.6,0-4.1,1.2-4.1,3c0,1.8,1.4,2.5,5.5,3.1
		c7.2,1,11.1,2.8,11.1,9c0,6.2-4.5,9.4-12,9.4C79.4,420.1,74.9,416.8,74.7,410.6"/>
	<path class="st0" d="M104.3,411.1v-14.5h-3.7v-5.6h3.7v-6.2h7.9v6.2h6v5.6h-6v13.8c0,2.3,1.2,3.4,3.2,3.4c1.2,0,2.1-0.2,3-0.6v6.1
		c-1.1,0.4-2.7,0.8-4.8,0.8C107.6,420.1,104.3,417,104.3,411.1"/>
	<path class="st0" d="M120.2,405.6v-0.4c0-9,6.4-14.9,14.7-14.9c7.4,0,14,4.3,14,14.6v2.2h-20.6c0.2,4.8,2.8,7.5,7.1,7.5
		c3.7,0,5.5-1.6,6-4h7.5c-0.9,6.2-5.9,9.6-13.7,9.6C126.5,420.1,120.2,414.7,120.2,405.6 M141.1,402.1c-0.3-4.3-2.5-6.4-6.2-6.4
		c-3.6,0-6,2.4-6.6,6.4H141.1z"/>
	<path class="st0" d="M153.3,390.9h7.9v4.4c1.4-2.7,4.5-5,8.8-5c3.8,0,6.6,1.6,8,5c2.3-3.4,6-5,9.6-5c5.3,0,9.4,3.3,9.4,11v18.3
		h-7.9v-17.5c0-3.7-1.6-5.3-4.5-5.3c-3.1,0-5.5,2-5.5,5.9v16.9h-7.9v-17.5c0-3.7-1.7-5.3-4.5-5.3c-3.1,0-5.5,2-5.5,5.9v16.9h-7.9
		V390.9z"/>
	<path class="st0" d="M201,410.6h7.4c0.3,2.6,1.6,4.1,5,4.1c3.1,0,4.5-1.2,4.5-3.1c0-2-1.7-2.8-5.8-3.4c-7.6-1.2-10.6-3.3-10.6-8.9
		c0-6,5.5-8.9,11.3-8.9c6.4,0,11.1,2.3,11.8,8.9h-7.3c-0.4-2.4-1.8-3.4-4.5-3.4c-2.6,0-4.1,1.2-4.1,3c0,1.8,1.4,2.5,5.5,3.1
		c7.2,1,11.1,2.8,11.1,9c0,6.2-4.5,9.4-12,9.4C205.8,420.1,201.3,416.8,201,410.6"/>
	<rect x="242.8" y="377.9" class="st0" width="7.9" height="41.6"/>
	<path class="st0" d="M256,382.7c0-2.5,2-4.3,4.5-4.3c2.6,0,4.5,1.9,4.5,4.3c0,2.5-2,4.3-4.5,4.3C258,387,256,385.2,256,382.7
		 M256.6,390.9h7.9v28.6h-7.9V390.9z"/>
	<path class="st0" d="M270.4,390.9h7.9v4.4c1.4-2.7,4.5-5,8.8-5c3.8,0,6.6,1.6,8,5c2.3-3.4,6-5,9.6-5c5.3,0,9.4,3.3,9.4,11v18.3
		h-7.9v-17.5c0-3.7-1.6-5.3-4.5-5.3c-3.1,0-5.5,2-5.5,5.9v16.9h-7.9v-17.5c0-3.7-1.7-5.3-4.5-5.3c-3.1,0-5.5,2-5.5,5.9v16.9h-7.9
		V390.9z"/>
	<path class="st0" d="M319.3,382.7c0-2.5,2-4.3,4.5-4.3c2.6,0,4.5,1.9,4.5,4.3c0,2.5-2,4.3-4.5,4.3
		C321.3,387,319.3,385.2,319.3,382.7 M319.9,390.9h7.9v28.6h-7.9V390.9z"/>
	<path class="st0" d="M334.7,411.1v-14.5H331v-5.6h3.7v-6.2h7.9v6.2h6v5.6h-6v13.8c0,2.3,1.2,3.4,3.2,3.4c1.2,0,2.1-0.2,3-0.6v6.1
		c-1.1,0.4-2.7,0.8-4.8,0.8C337.9,420.1,334.7,417,334.7,411.1"/>
	<path class="st0" d="M350.5,405.6v-0.4c0-9,6.4-14.9,14.7-14.9c7.4,0,14,4.3,14,14.6v2.2h-20.6c0.2,4.8,2.8,7.5,7.1,7.5
		c3.7,0,5.5-1.6,6-4h7.5c-0.9,6.2-5.9,9.6-13.7,9.6C356.8,420.1,350.5,414.7,350.5,405.6 M371.5,402.1c-0.3-4.3-2.5-6.4-6.2-6.4
		c-3.6,0-6,2.4-6.6,6.4H371.5z"/>
	<path class="st0" d="M382.1,405.6v-0.4c0-9.4,5.4-14.9,12.6-14.9c4.6,0,7.4,2,9,4.9v-17.2h7.9v41.6h-7.9v-4.8
		c-1.5,2.9-5,5.4-9.2,5.4C387.6,420.1,382.1,415.2,382.1,405.6 M404,405.4v-0.4c0-5.7-2.5-8.6-6.8-8.6c-4.4,0-6.9,3-6.9,8.7v0.4
		c0,5.7,2.7,8.5,6.7,8.5C401.1,414,404,411.2,404,405.4"/>
	<path class="st0" d="M584.1,228c-9,3.9-15.3,12.9-15.4,23.3l0,168.2h36c8.5,0,15.4-6.9,15.4-15.4V213.6L584.1,228z"/>
	<path class="st0" d="M517.1,279.5c-9,3.9-15.3,12.9-15.4,23.3l0,116.7h36c8.5,0,15.4-6.9,15.4-15.4v-139L517.1,279.5z"/>
	<path class="st0" d="M450.2,331c-9,3.9-15.3,12.9-15.4,23.3l0,65.3h36c8.5,0,15.4-6.9,15.4-15.4v-87.5L450.2,331z"/>
	<path class="st0" d="M135,337.6c-4.8,0-7.9,2.4-9.3,5.2V325l-7.9,3.3v38.6h7.9v-16.5c0-4.2,2.6-6.3,6-6.3c3.5,0,5,1.9,5,5.7v17.1
		h7.9v-18.2C144.6,341,140.6,337.6,135,337.6"/>
	<path class="st0" d="M187.2,343.7v-5.5h-7.9v28.6h7.9v-14.3c0-5.5,3.4-7.4,9.3-7.3v-7.4C191.8,337.9,189,339.9,187.2,343.7"/>
	<path class="st0" d="M162.2,337.6c-8.3,0-14.7,5.9-14.7,14.9v0.4c0,9.1,6.3,14.6,14.9,14.6c7.8,0,12.8-3.4,13.7-9.6h-7.5
		c-0.5,2.4-2.3,4-6,4c-4.3,0-6.9-2.7-7.1-7.5h20.6v-2.2C176.1,341.9,169.6,337.6,162.2,337.6 M155.6,349.5c0.6-4.1,3-6.4,6.6-6.4
		c3.8,0,6,2.1,6.2,6.4H155.6z"/>
	<path class="st0" d="M54.7,337.6c-3.6,0-7.3,1.5-9.6,5c-1.4-3.4-4.2-5-8-5c-4.3,0-7.3,2.4-8.8,5v-4.4h-7.9v28.6h7.9V350
		c0-3.9,2.5-5.9,5.5-5.9c2.8,0,4.5,1.6,4.5,5.3v17.5h7.9V350c0-3.9,2.5-5.9,5.5-5.9c2.8,0,4.5,1.6,4.5,5.3v17.5h7.9v-18.3
		C64.1,340.9,60,337.6,54.7,337.6"/>
	<path class="st0" d="M108.6,357.7v-13.8h6v-5.6h-6v-6.2l-7.9,3.3v2.9h-3.7v5.6h3.7v14.5c0,6,3.2,9,9.3,9c2.1,0,3.7-0.4,4.8-0.8
		v-6.1c-0.9,0.4-1.8,0.5-3,0.5C109.8,361.1,108.6,360,108.6,357.7"/>
	<path class="st0" d="M82.1,337.6c-8.6,0-15.1,5.9-15.1,14.8v0.4c0,8.9,6.5,14.6,15.1,14.6c8.6,0,15.1-5.7,15.1-14.8v-0.4
		C97.2,343.3,90.7,337.6,82.1,337.6 M89.1,352.7c0,5.4-2.6,8.7-7,8.7c-4.5,0-7-3.3-7-8.8v-0.4c0-5.5,2.6-8.6,7-8.6
		c4.4,0,7,3.3,7,8.8V352.7z"/>
	<path class="st0" d="M389.9,337.6c-3.6,0-7.3,1.5-9.6,5c-1.4-3.4-4.2-5-8-5c-4.3,0-7.3,2.4-8.8,5v-4.4h-7.9v28.6h7.9V350
		c0-3.9,2.5-5.9,5.5-5.9c2.8,0,4.5,1.6,4.5,5.3v17.5h7.9V350c0-3.9,2.5-5.9,5.5-5.9c2.8,0,4.5,1.6,4.5,5.3v17.5h7.9v-18.3
		C399.3,340.9,395.2,337.6,389.9,337.6"/>
	<path class="st0" d="M407.8,334.4c2.6,0,4.5-1.9,4.5-4.3c0-2.5-2-4.3-4.5-4.3c-2.5,0-4.5,1.9-4.5,4.3
		C403.3,332.5,405.3,334.4,407.8,334.4"/>
	<path class="st0" d="M210.7,349.1c-4.2-0.6-5.5-1.3-5.5-3.1c0-1.8,1.5-3,4.1-3c2.7,0,4.1,1.1,4.5,3.4h7.3
		c-0.7-6.6-5.5-8.9-11.8-8.9c-5.9,0-11.3,3-11.3,8.9c0,5.6,3,7.8,10.6,8.9c4.1,0.6,5.8,1.4,5.8,3.4c0,2-1.4,3.1-4.5,3.1
		c-3.5,0-4.7-1.5-5-4.1h-7.4c0.3,6.2,4.8,9.6,12.5,9.6c7.6,0,12-3.2,12-9.4C221.8,351.9,217.8,350.1,210.7,349.1"/>
	<rect x="403.9" y="338.2" class="st0" width="7.9" height="28.6"/>
	<path class="st0" d="M343.1,355c0,4.2-2.6,6.3-6,6.3c-3.4,0-5-1.9-5-5.7v-17.4h-7.9v18.4c0,7.5,4.2,10.8,9.7,10.8
		c4.7,0,7.6-2.2,9.1-5.1v4.5h7.9v-28.6h-7.9V355z"/>
	<path class="st0" d="M238,337.6c-8.6,0-15.1,5.9-15.1,14.8v0.4c0,8.9,6.5,14.6,15.1,14.6c8.6,0,15.1-5.7,15.1-14.8v-0.4
		C253.1,343.3,246.6,337.6,238,337.6 M245.1,352.7c0,5.4-2.6,8.7-7,8.7c-4.5,0-7-3.3-7-8.8v-0.4c0-5.5,2.6-8.6,7-8.6
		c4.4,0,7,3.3,7,8.8V352.7z"/>
	<path class="st0" d="M310.5,349.1c-4.2-0.6-5.5-1.3-5.5-3.1c0-1.8,1.5-3,4.1-3c2.7,0,4.1,1.1,4.5,3.4h7.3
		c-0.7-6.6-5.5-8.9-11.8-8.9c-5.9,0-11.3,3-11.3,8.9c0,5.6,3,7.8,10.6,8.9c4.1,0.6,5.8,1.4,5.8,3.4c0,2-1.4,3.1-4.5,3.1
		c-3.4,0-4.7-1.5-5-4.1h-7.4c0.3,6.2,4.8,9.6,12.5,9.6c7.6,0,12-3.2,12-9.4C321.6,351.9,317.7,350.1,310.5,349.1"/>
	<path class="st0" d="M273.3,337.6c-4.8,0-7.9,2.4-9.3,5.2v-4.5h-7.9v28.6h7.9v-16.5c0-4.2,2.6-6.3,6-6.3c3.5,0,5,1.9,5,5.7v17.1
		h7.9v-18.2C282.9,341,278.9,337.6,273.3,337.6"/>
</g>
</svg>
